<?xml version="1.0" encoding="utf-8"?>
<!-- Designed by Vexels.com - 2016 All Rights Reserved - https://vexels.com/terms-and-conditions/  -->

<svg version="1.0" id="Capa_1" xmlns="http://www.w3.org/2000/svg" xmlns:xlink="http://www.w3.org/1999/xlink" x="0px" y="0px"
	 width="1200px" height="1200px" viewBox="0 0 1200 1200" enable-background="new 0 0 1200 1200" xml:space="preserve">
<g>
	<path fill="#252233" d="M778.057,409.456c-2.443-0.049-4.462,1.897-4.495,4.349c-0.041,2.439,1.571,4.768,4.023,4.801
		c2.435,0.048,5.407-1.572,5.448-4.011C783.074,412.159,780.501,409.497,778.057,409.456z"/>
	<path fill="#252233" d="M781.34,390.534c-3.462-0.058-6.304,2.699-6.377,6.153c-0.048,3.452,2.256,6.751,5.709,6.808
		c3.453,0.057,7.656-2.223,7.712-5.685C788.441,394.358,784.792,390.591,781.34,390.534z"/>
	<path fill="#252233" d="M776.461,385.134c2.427,0.033,5.408-1.572,5.448-4.015c0.041-2.443-2.54-5.099-4.975-5.14
		c-2.443-0.048-4.447,1.906-4.496,4.341C772.397,382.773,774.01,385.085,776.461,385.134z"/>
	<path fill="#252233" d="M757.144,426.416c0.439-2.15-1.352-4.952-3.486-5.424c-2.15-0.465-4.276,0.904-4.739,3.046
		c-0.464,2.151,0.562,4.487,2.695,4.952C753.772,429.454,756.672,428.55,757.144,426.416z"/>
	<path fill="#252233" d="M514.62,814.862c-7.11,0.651-7.061,27.665-7.061,27.665s-22.233-15.319-26.802-9.838
		c-4.568,5.489,14.57,24.553,14.57,24.553s-26.557,4.894-25.914,12.004c0.66,7.101,27.672,7.044,27.672,7.044
		s-15.326,22.257-9.83,26.809c5.497,4.569,24.554-14.569,24.554-14.569s4.894,26.573,12.004,25.905
		c7.118-0.643,7.044-27.673,7.044-27.673s22.249,15.335,26.826,9.846c4.545-5.481-14.594-24.553-14.594-24.553
		s26.582-4.903,25.922-12.004c-0.66-7.109-27.672-7.061-27.672-7.061s15.327-22.248,9.83-26.801
		c-5.489-4.569-24.553,14.569-24.553,14.569S521.721,814.202,514.62,814.862z M524.214,848.529c0,0,12.875-12.924,16.581-9.846
		c3.705,3.086-6.646,18.096-6.646,18.096s18.226-0.033,18.673,4.764c0.448,4.797-17.484,8.095-17.484,8.095
		s12.924,12.892,9.845,16.589c-3.07,3.705-18.104-6.629-18.104-6.629s0.041,18.234-4.764,18.682
		c-4.78,0.44-8.102-17.518-8.102-17.518s-12.876,12.941-16.574,9.855c-3.714-3.095,6.646-18.096,6.646-18.096
		s-18.242,0.033-18.69-4.764c-0.448-4.796,17.493-8.102,17.493-8.102s-12.917-12.884-9.855-16.581
		c3.095-3.714,18.112,6.646,18.112,6.646s-0.033-18.242,4.764-18.683C520.907,830.587,524.214,848.529,524.214,848.529z"/>
	<path fill="#252233" d="M787.488,387.137c1.629,0.823,4.137,0.717,4.968-0.904c0.822-1.62-0.033-4.243-1.661-5.065
		c-1.621-0.831-3.608-0.179-4.431,1.442C785.55,384.23,785.884,386.307,787.488,387.137z"/>
	<path fill="#252233" d="M760.051,404.056c-3.461-0.057-6.303,2.704-6.352,6.157c-0.073,3.453,2.24,6.739,5.685,6.804
		c3.461,0.066,7.655-2.211,7.728-5.672C767.161,407.884,763.513,404.122,760.051,404.056z"/>
	<path fill="#252233" d="M770.891,370.638c2.011-1.376,3.485-4.41,2.101-6.43c-1.384-2.003-5.033-2.671-7.044-1.278
		c-2.02,1.384-2.517,4.145-1.124,6.144C766.201,371.086,768.879,372.031,770.891,370.638z"/>
	<path fill="#252233" d="M402.846,342.35c3.192,1.323,7.093,0.399,8.429-2.789c1.319-3.205,0.741-7.941-2.459-9.272
		c-3.185-1.323-8.038,0.685-9.366,3.881C398.13,337.358,399.652,341.027,402.846,342.35z"/>
	<path fill="#252233" d="M867.143,353.516c-0.937-0.374-3.616-0.635-3.974,0.383c-0.35,1.01,1.157,2.443,2.744,3.347
		c1.596,0.904,3.787,0.065,4.211-0.839C870.555,355.519,868.528,354.053,867.143,353.516z"/>
	<path fill="#252233" d="M845.171,361.293c-1.832-0.089-3.396,1.67-3.356,2.655c0.017,0.985,2.5,1.36,3.966,1.222
		c1.018-0.098,3.51-1.092,3.372-2.151C848.999,361.944,846.988,361.366,845.171,361.293z"/>
	<path fill="#252233" d="M842.736,358.272c-0.212-1.376-2.785-2.134-5.171-2.239c-2.37-0.098-4.39,2.166-4.349,3.452
		c0.024,1.278,3.242,1.767,5.147,1.58C839.682,360.927,842.916,359.656,842.736,358.272z"/>
	<path fill="#252233" d="M852.549,352.18c-2.15-0.073-7.639,1.279-7.63,3.543c0.017,2.272,4.015,4.048,7.826,4.716
		c3.803,0.684,7.541-2.549,7.761-4.617C860.734,353.743,855.661,352.27,852.549,352.18z"/>
	<path fill="#252233" d="M398.888,355.389c1.352-1.213,2.174-3.583,0.969-4.944c-1.206-1.36-3.95-1.531-5.31-0.325
		c-1.368,1.205-1.482,3.29-0.293,4.658C395.459,356.13,397.519,356.594,398.888,355.389z"/>
	<path fill="#252233" d="M657.887,358.362c-3.828,0-6.922,3.102-6.922,6.922c0,3.815,3.095,6.927,6.922,6.927
		s6.938-3.111,6.938-6.927C664.825,361.464,661.715,358.362,657.887,358.362z"/>
	<path fill="#252233" d="M778.986,371.07c1.645,0.831,4.145,0.708,4.968-0.904c0.822-1.617-0.025-4.239-1.662-5.062
		c-1.612-0.831-3.599-0.187-4.414,1.442C777.056,368.166,777.374,370.247,778.986,371.07z"/>
	<path fill="#252233" d="M752.959,381.722c-0.073,3.469,2.231,6.752,5.684,6.808c3.445,0.065,7.663-2.215,7.721-5.676
		c0.057-3.445-3.6-7.232-7.053-7.273C755.857,375.516,753.007,378.277,752.959,381.722z"/>
	<path fill="#252233" d="M726.239,409.692c-1.816-0.163-3.421,1.165-3.592,2.973c-0.171,1.808,0.904,3.628,2.72,3.791
		c1.808,0.178,4.105-0.851,4.267-2.651C729.814,411.988,728.03,409.863,726.239,409.692z"/>
	<path fill="#252233" d="M743.136,408.714c-2.443-0.048-4.447,1.906-4.503,4.357c-0.041,2.427,1.588,4.752,4.023,4.801
		c2.452,0.033,5.407-1.58,5.456-4.011C748.145,411.411,745.563,408.747,743.136,408.714z"/>
	<path fill="#252233" d="M739.293,396.45c-1.303-3.184-5.065-6.136-8.274-4.825c-3.184,1.323-5.204,6.161-3.869,9.362
		c1.303,3.192,4.976,4.715,8.177,3.404C738.503,403.063,740.621,399.65,739.293,396.45z"/>
	<path fill="#252233" d="M728.674,384.686c1.629-1.808,2.378-5.106,0.561-6.743c-1.808-1.637-5.496-1.458-7.142,0.359
		c-1.645,1.808-1.507,4.601,0.309,6.238C724.202,386.185,727.037,386.503,728.674,384.686z"/>
	<path fill="#252233" d="M761.387,397.802c1.629,0.815,4.137,0.717,4.959-0.911c0.831-1.621-0.033-4.243-1.645-5.062
		c-1.621-0.822-3.616-0.178-4.447,1.438C759.441,394.886,759.767,396.979,761.387,397.802z"/>
	<path fill="#252233" d="M736.109,368.044c1.62,0.818,4.136,0.705,4.959-0.904c0.806-1.613-0.033-4.243-1.661-5.065
		c-1.63-0.831-3.6-0.171-4.431,1.441C734.154,365.137,734.479,367.222,736.109,368.044z"/>
	<path fill="#252233" d="M752.185,368.224c2.435-0.049,4.707-1.76,4.658-4.195c-0.058-2.451-1.767-5.358-4.202-5.31
		c-2.443,0.041-5.009,2.712-4.96,5.155C747.721,366.326,749.733,368.265,752.185,368.224z"/>
	<path fill="#252233" d="M737.526,379.027c-0.098,2.435,1.49,4.805,3.917,4.894c2.451,0.089,5.456-1.466,5.546-3.901
		c0.09-2.435-2.435-5.155-4.878-5.253C739.676,374.686,737.623,376.583,737.526,379.027z"/>
	<path fill="#252233" d="M753.089,394.488c-0.977-2.24-3.575-3.262-5.815-2.292c-2.232,0.973-3.689,3.416-2.704,5.656
		c0.969,2.24,3.665,4.276,5.896,3.307C752.706,400.172,754.073,396.727,753.089,394.488z"/>
	<path fill="#252233" d="M510.662,734.017c1.783,0.367,4.08-1.156,4.447-2.948c0.366-1.783-0.782-3.518-2.558-3.884
		c-1.783-0.366-3.697,0.505-4.08,2.288C508.113,731.257,508.878,733.651,510.662,734.017z"/>
	<path fill="#252233" d="M406.502,771.952c-10.041-3.706-17.313-3.787-21.63-0.228c-6.181,5.115-5.285,17.371-4.438,21.663
		l0.985,4.788l-4.544-1.808c-0.188-0.073-18.161-7.158-26.647-0.147c-4.235,3.494-5.521,10.237-3.836,20.034
		c1.816,10.57,5.391,16.915,10.636,18.861c8.38,3.111,19.399-5.709,20.636-6.719l3.633-3.005l1.051,4.324
		c0.033,0.203,2.866,19.163,13.087,23.104c5.122,1.987,11.597-0.212,19.228-6.523l1.685,2.036l-1.539-2.166
		c8.339-6.906,12.037-13.234,10.995-18.788c-1.743-9.398-16.361-14.448-16.524-14.505l-4.617-1.564l3.836-3.021
		c0.016,0,0.016-0.017,0.033-0.033c1.963-1.604,15.132-12.876,13.413-22.982C421.03,779.868,415.835,775.397,406.502,771.952z"/>
	<path fill="#252233" d="M935.023,745.403c0-3.828-3.103-6.931-6.931-6.931c-3.819,0-6.93,3.103-6.93,6.931
		c0,3.803,3.111,6.914,6.93,6.914C931.919,752.317,935.023,749.206,935.023,745.403z"/>
	<path fill="#252233" d="M559.851,775.64c0-3.827-3.103-6.938-6.93-6.938c-3.828,0-6.931,3.111-6.931,6.938
		c0,3.812,3.103,6.922,6.931,6.922C556.748,782.563,559.851,779.452,559.851,775.64z"/>
	<path fill="#252233" d="M744.472,903.394c0,3.819,3.111,6.922,6.922,6.922c3.827,0,6.938-3.103,6.938-6.922
		c0-3.828-3.111-6.938-6.938-6.938C747.583,896.455,744.472,899.566,744.472,903.394z"/>
	<path fill="#252233" d="M695.658,797.027c0,0-15.319,22.249-9.838,26.809c5.497,4.569,24.562-14.569,24.562-14.569
		s4.886,26.573,12.004,25.897c7.118-0.651,7.053-27.664,7.053-27.664s22.241,15.334,26.81,9.837
		c4.561-5.472-14.586-24.553-14.586-24.553s26.582-4.894,25.914-12.004c-0.66-7.102-27.657-7.053-27.657-7.053
		s15.31-22.258,9.813-26.81c-5.472-4.561-24.545,14.585-24.545,14.585s-4.894-26.573-11.996-25.914
		c-7.109,0.66-7.061,27.673-7.061,27.673s-22.233-15.327-26.801-9.83c-4.561,5.472,14.569,24.537,14.569,24.537
		s-26.557,4.895-25.914,12.004C668.645,797.083,695.658,797.027,695.658,797.027z M701.66,780.389c0,0-12.924-12.892-9.854-16.589
		c3.094-3.705,18.111,6.654,18.111,6.654s-0.033-18.259,4.764-18.683c4.797-0.448,8.112,17.493,8.112,17.493
		s12.867-12.933,16.573-9.846c3.705,3.079-6.654,18.088-6.654,18.088s18.242-0.033,18.683,4.772
		c0.448,4.797-17.485,8.087-17.485,8.087s12.933,12.892,9.838,16.597c-3.07,3.698-18.104-6.646-18.104-6.646
		s0.048,18.242-4.764,18.683c-4.781,0.44-8.095-17.509-8.095-17.509s-12.868,12.94-16.573,9.854
		c-3.714-3.086,6.629-18.095,6.629-18.095s-18.226,0.033-18.674-4.764C683.719,783.687,701.66,780.389,701.66,780.389z"/>
	<path fill="#252233" d="M791.976,854.368l2.036-1.694c7.517,7.81,14.081,11.026,19.553,9.601
		c9.243-2.427,13.21-17.395,13.259-17.533l1.213-4.723l3.298,3.599c0.008,0.017,0.024,0.017,0.033,0.032
		c1.751,1.841,13.958,14.146,23.902,11.695c5.326-1.295,9.406-6.808,12.159-16.353c2.98-10.286,2.517-17.566-1.344-21.605
		c-5.546-5.798-17.713-4.007-21.932-2.834l-4.707,1.319l1.474-4.667c0.065-0.188,5.807-18.642-1.8-26.582
		c-3.787-3.966-10.595-4.764-20.262-2.353c-10.4,2.565-16.467,6.605-18.015,11.971c-2.508,8.584,7.11,18.943,8.209,20.091
		l3.25,3.404l-4.251,1.368c-0.179,0.04-18.894,4.259-22.086,14.732c-1.589,5.26,1.075,11.547,7.924,18.698L791.976,854.368z"/>
	<path fill="#252233" d="M377.045,362.246c-2.232-0.986-5.684,0.358-6.678,2.598c-0.969,2.239,0.049,4.842,2.281,5.827
		c2.231,0.977,5.016,0.383,6.002-1.849C379.627,366.595,379.277,363.224,377.045,362.246z"/>
	<path fill="#252233" d="M367.981,353.068c0.847-2.288,0.089-5.009-2.182-5.872c-2.297-0.856-5.636-0.326-6.483,1.955
		c-0.855,2.288,0.685,5.66,2.973,6.515C364.577,356.529,367.134,355.356,367.981,353.068z"/>
	<path fill="#252233" d="M357.574,362.694c-1.368,1.205-1.499,3.29-0.294,4.65c1.205,1.356,3.274,1.82,4.634,0.61
		c1.352-1.197,2.174-3.583,0.977-4.943C361.694,361.652,358.933,361.496,357.574,362.694z"/>
	<path fill="#252233" d="M368.6,377.984c-2.191,1.083-3.38,4.577-2.313,6.767c1.083,2.207,3.729,3.095,5.92,2.02
		c2.191-1.083,3.527-3.583,2.452-5.783C373.576,378.798,370.783,376.892,368.6,377.984z"/>
	<path fill="#252233" d="M380.499,329.19c1.36-1.213,2.174-3.588,0.969-4.951c-1.198-1.36-3.958-1.528-5.31-0.318
		c-1.368,1.197-1.49,3.286-0.277,4.646C377.078,329.923,379.139,330.395,380.499,329.19z"/>
	<path fill="#252233" d="M417.61,371.111c-1.222,1.824-0.725,4.3,1.091,5.513c1.833,1.23,4.373,1.132,5.603-0.692
		c1.213-1.825,1.442-4.846-0.383-6.075C422.098,368.635,418.848,369.295,417.61,371.111z"/>
	<path fill="#252233" d="M398.562,327.191c1.36-1.206,2.182-3.588,0.977-4.944c-1.206-1.364-3.958-1.531-5.318-0.318
		c-1.368,1.201-1.49,3.282-0.294,4.638C395.141,327.931,397.202,328.392,398.562,327.191z"/>
	<path fill="#252233" d="M373.429,341.638c2.378-0.558,4.243-2.692,3.689-5.074c-0.545-2.378-2.826-4.862-5.204-4.312
		c-2.387,0.55-4.333,3.689-3.804,6.079C368.674,340.706,371.044,342.188,373.429,341.638z"/>
	<path fill="#252233" d="M384.301,332.903c-0.928,2.256,0.138,4.846,2.394,5.778c2.248,0.941,5.009,0.289,5.953-1.967
		c0.921-2.256,0.513-5.611-1.735-6.543C388.659,329.231,385.23,330.648,384.301,332.903z"/>
	<path fill="#252233" d="M404.213,358.923c-1.328,3.201,0.196,6.866,3.388,8.185c3.192,1.335,7.101,0.407,8.42-2.785
		c1.328-3.192,0.75-7.948-2.435-9.267C410.378,353.728,405.533,355.739,404.213,358.923z"/>
	<path fill="#252233" d="M408.929,373.643c-2.257-0.929-5.677,0.48-6.605,2.736c-0.937,2.256,0.13,4.838,2.386,5.774
		c2.256,0.937,5.017,0.285,5.945-1.971C411.592,377.919,411.192,374.58,408.929,373.643z"/>
	<path fill="#252233" d="M418.237,349.949c2.256,0.944,5.016,0.284,5.953-1.971c0.936-2.256,0.53-5.611-1.726-6.543
		c-2.256-0.933-5.677,0.476-6.613,2.74C414.914,346.422,415.989,349.012,418.237,349.949z"/>
	<path fill="#252233" d="M402.088,390.794c-1.62-0.831-4.242,0.033-5.065,1.657c-0.831,1.613-0.179,3.6,1.442,4.422
		c1.612,0.822,3.705,0.497,4.527-1.124C403.822,394.129,403.7,391.616,402.088,390.794z"/>
	<path fill="#252233" d="M389.262,354.534c1.319-3.185,0.749-7.949-2.452-9.268c-3.184-1.323-8.038,0.685-9.365,3.885
		c-1.319,3.184,0.195,6.848,3.396,8.176C384.033,358.646,387.934,357.726,389.262,354.534z"/>
	<path fill="#252233" d="M389.514,375.419c-3.461,0.057-7.582,2.475-7.541,5.92c0.065,3.462,3.828,7.118,7.289,7.069
		c3.444-0.049,6.214-2.9,6.164-6.352C395.369,378.595,392.975,375.37,389.514,375.419z"/>
	<path fill="#252233" d="M392.755,361.896c-2.443,0.073-4.357,2.117-4.267,4.561c0.081,2.431,1.824,4.687,4.259,4.588
		c2.452-0.081,5.326-1.832,5.237-4.279C397.902,364.331,395.198,361.798,392.755,361.896z"/>
	<path fill="#252233" d="M389.644,549.477c-7.737-6.612-18.65-9.91-32.738-9.91H304.02v125.668h17.036v-48.961h36.917
		c13.324,0,23.87-3.51,31.623-10.53c7.753-7.012,11.646-16.467,11.646-28.365C401.241,565.374,397.372,556.066,389.644,549.477z
		 M355.57,602.811h-34.514v-49.587h33.798c19.512,0,29.253,8.111,29.253,24.35C384.106,594.399,374.594,602.811,355.57,602.811z"/>
	<rect x="451.456" y="539.567" fill="#252233" width="17.045" height="125.668"/>
	<polygon fill="#252233" points="610.782,551.97 610.782,539.567 521.404,539.567 521.404,553.493 591.424,553.493 514.905,652.481 
		514.905,665.234 614.977,665.234 614.977,651.316 534.255,651.316 	"/>
	<polygon fill="#252233" points="746.109,551.97 746.109,539.567 656.739,539.567 656.739,553.493 726.751,553.493 650.223,652.481 
		650.223,665.234 750.295,665.234 750.295,651.316 669.581,651.316 	"/>
	<path fill="#252233" d="M831.391,539.567l-51.29,125.668h17.664l14.44-36.753h57.267l14.358,36.753h17.403l-50.492-125.668H831.391
		z M817.384,615.207l16.06-41.298c2.915-7.721,5.106-14.056,6.596-18.999l0.798-2.492l2.403,7.394c1.678,5.171,3.339,9.83,5,13.926
		l16.15,41.469H817.384z"/>
	<polygon fill="#252233" points="208.728,591.174 200.332,574.177 191.943,591.174 173.212,593.894 186.764,607.128 183.563,625.81 
		200.332,616.982 217.108,625.81 213.907,607.128 227.467,593.894 	"/>
	<polygon fill="#252233" points="1008.057,591.174 999.668,574.177 991.289,591.174 972.541,593.894 986.101,607.128 982.9,625.81 
		999.668,616.982 1016.437,625.81 1013.236,607.128 1026.812,593.894 	"/>
	<path fill="#252233" d="M1147.496,474.937h-111.245C981.915,285.123,807.278,146.124,600,146.124
		c-207.278,0-381.907,138.999-436.235,328.813H52.504l51.885,125.056L52.504,725.051h111.262
		C218.094,914.876,392.722,1053.876,600,1053.876c207.277,0,381.914-139,436.251-328.825h111.245l-51.876-125.057L1147.496,474.937z
		 M600,198.391c177.797,0,328.906,116.164,381.605,276.546h-8.453c-7.615-22.616-17.102-44.384-28.495-64.96l-112.541,64.96h-10.57
		l120.472-69.545C875.1,288.271,749.831,208.665,606.059,206.474v268.463h-5.285V206.343c-0.252,0-0.521-0.024-0.773-0.024
		c-145.1,0-272.022,78.963-340.308,196.108l125.595,72.51h-10.554l-117.671-67.932c-12.126,21.463-22.176,44.233-30.157,67.932
		h-8.494C271.102,314.555,422.204,198.391,600,198.391z M928.956,474.937H877.82C893.717,467.444,912.537,467.135,928.956,474.937z
		 M866.516,415.107c0.668,3.767-1.392,8.857-5.489,8.996c-4.096,0.138-9.414,1.058-11.995,0.651
		c-2.574-0.391-6.027-1.01-5.514-8.266c0.514-7.244,1.654-32.527,1.654-32.527s-8.665,5.961-12.794,7.639
		c-4.137,1.706-12.948,1.152-13.681-7.435c-0.692-8.592,3.111-22.579,12.403-29.257c10.513-7.525,29.945-6.979,39.115-3.201
		c9.17,3.77,18.503,18.573,18.389,27.229c-0.138,8.649-8.258,14.289-15.139,10.93c-5.53-2.712-11.605-6.174-11.605-6.174
		S865.849,411.321,866.516,415.107z M719.503,458.103c-4.56-9.683-9.691-14.854-15.261-15.343
		c-7.989-0.701-15.954,8.665-18.357,12.33l-2.671,4.096l-1.955-4.487c-0.082-0.179-7.932-17.827-18.885-18.788
		c-5.465-0.48-11.117,3.412-16.793,11.58c-6.124,8.804-8.022,15.841-5.66,20.906c1.417,3.013,4.243,5.098,7.329,6.54h-9.016
		c-1.222-1.254-2.313-2.631-3.102-4.301c-3.226-6.906-1.165-15.693,6.116-26.158c6.832-9.838,14.097-14.488,21.589-13.828
		c10.392,0.904,17.909,11.972,21.289,18.03c3.859-4.593,11.547-11.971,20.563-11.181c7.59,0.66,14.179,6.841,19.602,18.372
		c3.485,7.435,4.723,13.804,3.77,19.065h-5.35C723.811,470.669,722.761,465.026,719.503,458.103z M663.017,251.664
		c0,0,17.338,8.816,12.558,27.433c15.758-24.012,42.209-10.664,42.209-10.664s-10.31,19.138-30.98,17.68
		c1.84,1.735,3.429,4.174,4.463,7.635c-2.639,0.595-4.927,0.61-6.897,0.236c2.369,5.033,3.232,11.695-0.285,20.079
		c-15.091-7.602-14.284-20.571-12.567-27.4c-5.619,7.118-19.398,19.741-41.403,9.919c11.222-21.031,29.676-18.909,38.814-16.234
		C654.711,269.133,663.017,251.664,663.017,251.664z M671.194,365.283c0,7.35-5.969,13.328-13.307,13.328
		s-13.315-5.978-13.315-13.328c0-7.345,5.978-13.323,13.315-13.323S671.194,357.938,671.194,365.283z M710.847,410.449
		c-9.439-23.881,2.256-50.874,26.133-60.322c23.878-9.438,50.9,2.264,60.33,26.138c9.447,23.874-2.272,50.883-26.141,60.33
		C747.29,446.026,720.277,434.323,710.847,410.449z M530.044,447.712c0,0,21.679,16.142,26.426,10.807
		c4.773-5.31-13.657-25.067-13.657-25.067s26.72-3.925,26.321-11.043c-0.391-7.122-27.388-8.058-27.388-8.058
		s16.117-21.687,10.807-26.422c-5.334-4.757-25.075,13.653-25.075,13.653s-3.925-26.708-11.051-26.309
		c-7.126,0.391-8.062,27.375-8.062,27.375s-21.671-16.112-26.427-10.803c-4.764,5.33,13.666,25.066,13.666,25.066
		s-26.712,3.926-26.321,11.044c0.399,7.142,27.387,8.07,27.387,8.07s-16.125,21.679-10.799,26.427
		c5.326,4.773,25.059-13.681,25.059-13.681s3.567,24.147,10.041,26.166h-34.953c-22.241-14.79-32.568-43.204-23.324-69.562
		c10.937-31.195,45.109-47.633,76.316-36.716c31.223,10.954,47.658,45.122,36.712,76.332c-4.479,12.77-12.892,23.007-23.373,29.946
		h-29.75C529.149,473.039,530.044,447.712,530.044,447.712z M521.086,458.893c-4.805,0.261-7.46-17.769-7.46-17.769
		s-13.331,12.444-16.93,9.218c-3.583-3.201,7.304-17.851,7.304-17.851s-18.242-0.619-18.494-5.432
		c-0.269-4.804,17.778-7.46,17.778-7.46s-12.452-13.32-9.235-16.91c3.209-3.6,17.843,7.289,17.843,7.289s0.627-18.222,5.432-18.507
		c4.821-0.253,7.46,17.79,7.46,17.79s13.348-12.444,16.931-9.227c3.599,3.209-7.297,17.839-7.297,17.839s18.234,0.627,18.503,5.44
		c0.26,4.805-17.779,7.452-17.779,7.452s12.436,13.34,9.227,16.931c-3.209,3.583-17.827-7.305-17.827-7.305
		S525.899,458.633,521.086,458.893z M498.91,292.534c7.997,1.788,19.114,4.968,30.905,10.416c2.712-3.506,8.323-4.28,13.218-1.6
		c5.318,2.932,7.688,8.791,5.318,13.12c-2.394,4.312-8.608,5.444-13.917,2.533c-4.716-2.598-7.102-7.517-5.904-11.605
		c-7.997-3.681-15.67-6.32-22.217-8.153c3.119,3.498,6.026,7.859,7.981,11.105c2.867-0.208,6.059,1.168,8.315,3.949
		c3.339,4.113,3.331,9.663-0.017,12.371c-3.347,2.736-8.787,1.604-12.126-2.508c-3.347-4.112-3.347-9.663,0-12.386
		c0.343-0.265,0.701-0.465,1.059-0.664c-2.671-4.325-6.841-10.408-10.668-13.283c-8.584-2.072-14.276-2.663-14.382-2.671l0.26-2.749
		c0.106,0,4.822,0.476,12.151,2.126c-0.627-14.887,14.341-20.413,14.341-20.413S509.131,286.263,498.91,292.534z M522.3,288.255
		c0,0-7.012,7.924-20.425,4.894C508.74,285.441,522.3,288.255,522.3,288.255z M438.556,360.56c0,25.666-20.816,46.478-46.493,46.478
		c-25.678,0-46.493-20.812-46.493-46.478c0-25.678,20.816-46.498,46.493-46.498C417.74,314.062,438.556,334.882,438.556,360.56z
		 M295.062,474.937h-11.377c0.57-4.829,2.191-8.307,2.191-8.307S291.136,469.382,295.062,474.937z M600,1001.608
		c-177.797,0-328.899-116.164-381.589-276.558h8.478c8.73,25.889,19.936,50.647,33.568,73.833l127.883-73.833h10.563l-135.815,78.41
		C332.148,917.385,457.328,993.677,600,993.677c0.252,0,0.521-0.025,0.773-0.025V725.051h5.285V993.53
		c141.361-2.15,264.838-79.118,332.555-193.018l-130.693-75.462h10.546l122.777,70.877c12.875-22.331,23.495-46.078,31.842-70.877
		h8.519C928.906,885.444,777.797,1001.608,600,1001.608z M430.998,826.402c1.409,7.581-2.89,15.604-12.81,23.829l-0.154,0.138
		c-9.227,7.622-17.478,10.106-24.522,7.37c-9.642-3.73-13.902-16.255-15.522-22.974c-5.123,3.534-14.325,8.445-22.795,5.31
		c-7.158-2.654-11.858-10.367-14.016-22.925c-2.02-11.808-0.098-20.213,5.685-25.002c8.046-6.645,21.166-4.047,27.827-2.085
		c-0.465-6.002-0.171-16.638,6.808-22.412c5.872-4.837,14.912-5.065,26.85-0.643c11.222,4.137,17.55,9.985,18.804,17.379
		c1.751,10.261-7.061,20.335-12.11,25.172C420.403,812.117,429.354,817.615,430.998,826.402z M475.497,728.26
		c0.602,2.378,2.948,4.797,5.326,4.186c2.363-0.603,4.236-3.787,3.624-6.157c-0.114-0.464-0.35-0.856-0.595-1.238h6.963
		c-0.123,0.701-0.123,1.434,0.065,2.175c0.871,3.355,4.186,6.8,7.533,5.928c3.152-0.806,5.668-4.838,5.237-8.103h28.332
		c-2.785,4.113-6.23,7.859-10.424,11.011c-20.522,15.432-49.677,11.295-65.102-9.227c-0.44-0.578-0.823-1.189-1.222-1.784h20.922
		C475.497,725.963,475.203,727.096,475.497,728.26z M572.197,836.736c15.416,29.269,4.185,65.485-25.083,80.901
		c-29.261,15.408-65.477,4.185-80.886-25.083c-15.416-29.253-4.186-65.485,25.076-80.901
		C520.565,796.245,556.789,807.483,572.197,836.736z M539.605,775.64c0-7.354,5.978-13.331,13.315-13.331
		c7.345,0,13.315,5.978,13.315,13.331c0,7.338-5.969,13.315-13.315,13.315C545.583,788.956,539.605,782.978,539.605,775.64z
		 M673.018,866.722c0,0,11.19,21.988-3.543,40.336c2.81-0.586,6.14-0.505,10.009,0.774c-1.148,2.842-2.606,4.984-4.218,6.581
		c6.214,1.051,12.981,4.56,18.527,13.242c-16.841,9.17-28.414,0.024-33.691-5.994c3.013,9.855,5.88,30.865-17.509,45.036
		c-12.371-24.065,1.547-39.905,9.951-46.697c-19.642,6.01-30.572-13.03-30.572-13.03s19.431-10.481,33.708,6.018
		C643.464,882.766,673.018,866.722,673.018,866.722z M689.876,732.388c29.253-15.4,65.485-4.178,80.893,25.083
		c15.416,29.269,4.186,65.477-25.083,80.886c-29.261,15.424-65.484,4.194-80.893-25.076
		C649.384,784.021,660.615,747.805,689.876,732.388z M665.762,725.051h7.989c-0.154,0.114-0.325,0.269-0.464,0.35
		C671.446,726.574,669.052,727.95,665.762,725.051z M764.726,903.394c0,7.345-5.978,13.315-13.331,13.315
		c-7.329,0-13.307-5.97-13.307-13.315c0-7.346,5.978-13.324,13.307-13.324C758.749,890.07,764.726,896.048,764.726,903.394z
		 M795.754,792.768c2.126-7.322,9.463-12.575,21.85-15.636c11.629-2.883,20.156-1.58,25.344,3.835
		c7.224,7.541,5.57,20.824,4.105,27.608c5.945-0.912,16.58-1.393,22.843,5.155c5.27,5.506,6.149,14.488,2.614,26.737
		c-3.315,11.491-8.681,18.226-15.978,20.018c-10.091,2.483-20.807-5.562-25.979-10.253c-2.166,5.546-7.003,14.862-15.628,17.142
		c-7.46,1.971-15.783-1.742-24.716-11.018l-0.147-0.171c-8.266-8.633-11.345-16.679-9.137-23.91
		c3.013-9.879,15.213-15.042,21.785-17.16C798.808,810.277,793.237,801.449,795.754,792.768z M914.769,745.403
		c0-7.354,5.969-13.34,13.323-13.34c7.346,0,13.324,5.985,13.324,13.34c0,7.345-5.978,13.323-13.324,13.323
		C920.738,758.726,914.769,752.748,914.769,745.403z M1131.68,714.481H68.344l47.495-114.487L68.344,485.507H1131.68
		l-47.511,114.486L1131.68,714.481z"/>
</g>
</svg>
